<svg id="SPPD_copy_Image" data-name="SPPD copy Image" xmlns="http://www.w3.org/2000/svg" viewBox="0 0 556.38 198.43"><defs><style>.cls-1{fill:#fff;}</style></defs><title>sppd_white</title><path class="cls-1" d="M222.44,159.1c1.1.44,2.29.41,3.39.94a8.36,8.36,0,0,1,4.51,5.15c3.27,10.09,6.47,20.21,9.71,30.31,2,6.21,4,12.4,6,18.6.39,1.21.68,2.45,1.13,3.64.3.8,0,.91-.68.89-1.34,0-2.68,0-4,0a63.8,63.8,0,0,0-16.75,2.65,49.7,49.7,0,0,0-17.62,9,40,40,0,0,0-9.54,11.05c-2.85,4.77-4.17,10-4.94,15.43a38.88,38.88,0,0,0,.14,10.22,46.22,46.22,0,0,0,3.75,13.48,39.63,39.63,0,0,0,5.5,8.48,44.65,44.65,0,0,0,10.52,9.1c.22.15.42.34.79.65l-7.11,2.29q-12,3.85-24,7.72c-2.22.71-4.44,1.45-6.83.69a8.23,8.23,0,0,1-5.74-5.26c-2.77-8.38-5.46-16.78-8.17-25.18q-3.12-9.7-6.23-19.41Q152,246,147.7,232.59q-3-9.42-6-18.85c-2-6.17-4-12.31-5.87-18.52A8.3,8.3,0,0,1,141.05,185c8.86-3,17.76-5.8,26.65-8.67,6.46-2.09,12.94-4.15,19.41-6.23,9.46-3.05,18.91-6.12,28.38-9.13A41.44,41.44,0,0,1,222,159.1Z" transform="translate(-82.04 -159.1)"/><path class="cls-1" d="M200.61,312.23a4.8,4.8,0,0,1-1.35,1.92L183.78,331.3c-.85.94-1.68,1.92-2.59,2.82a8.68,8.68,0,0,1-12.11.24q-7.62-6.93-15.26-13.82l-15.1-13.65-14.91-13.48-15.1-13.65q-7.45-6.75-14.92-13.48c-2.87-2.59-5.77-5.15-8.65-7.75a8.79,8.79,0,0,1-2.61-3.94,1.42,1.42,0,0,0-.49-.93v-3.6c1.08-3.45,3.77-5.75,6.06-8.32,4.91-5.51,9.87-11,14.81-16.46,1.39-1.55,2.84-3,4.22-4.59.43-.47.62-.45,1,.08q6.09,9.48,12.23,18.93,7.89,12.15,15.82,24.28,6.21,9.54,12.4,19.1,7.83,12,15.67,24.09c2.25,3.46,4.45,7,6.79,10.38a11.78,11.78,0,0,0,12,4.86,12.48,12.48,0,0,0,4.76-2c3.95-2.53,7.86-5.12,11.78-7.69a2.3,2.3,0,0,1,1.08-.48Z" transform="translate(-82.04 -159.1)"/><path class="cls-1" d="M537.73,289.67q0-32.26,0-64.54c0-1.22.3-1.5,1.51-1.5,17,.05,34.07-.17,51.1.11,11.49.18,22.33,3.12,31.8,10a38.11,38.11,0,0,1,15.55,25.19,51.12,51.12,0,0,1,.72,8.82c0,15.23.14,30.47-.06,45.71-.2,16.54-7.76,28.71-22.59,36.2a57.51,57.51,0,0,1-19.91,5.56,89.49,89.49,0,0,1-9.68.46H539.35c-1.83,0-1.61.26-1.62-1.56Zm33.51-.12q0,16.74,0,33.47c0,1,.25,1.28,1.25,1.28,5.48-.05,11,0,16.44,0a23.79,23.79,0,0,0,5.11-.54c6.54-1.42,10.7-6.21,10.73-12.71q.09-21.76,0-43.55A12.11,12.11,0,0,0,597,256.26a25.6,25.6,0,0,0-9.51-1.55c-5-.06-9.92,0-14.88,0-1.1,0-1.4.29-1.4,1.4C571.26,267.23,571.24,278.39,571.24,289.55Z" transform="translate(-82.04 -159.1)"/><path class="cls-1" d="M307.33,289.54q0-32.22,0-64.44c0-1.1.19-1.47,1.4-1.47,18.08.05,36.17-.27,54.24.13,15.4.34,28.29,6.38,37.3,19.35a45.63,45.63,0,0,1,7.74,21,48.4,48.4,0,0,1-3.89,26.4c-6.32,13.82-17.11,22.13-31.9,25.33A55.92,55.92,0,0,1,360,317c-6,0-12.08,0-18.12,0-1,0-1.27.25-1.27,1.25,0,12,0,24,.06,36,0,1.16-.28,1.45-1.44,1.44q-15.24-.07-30.48,0c-1.21,0-1.41-.37-1.4-1.48Q307.35,321.88,307.33,289.54ZM340.6,271q0,7.68,0,15.36c0,.67,0,1.13.93,1.12,6.84-.12,13.68.23,20.51-.21a12.71,12.71,0,0,0,9.13-4.65,17.37,17.37,0,0,0,3.94-12.93c-.46-7.41-5.1-15-15.39-15-6,0-12,0-18,0-.92,0-1.14.3-1.13,1.17C340.62,260.89,340.6,265.93,340.6,271Z" transform="translate(-82.04 -159.1)"/><path class="cls-1" d="M422.53,289.67q0-32.28,0-64.55c0-1.25.35-1.49,1.52-1.48,18,0,36.09-.28,54.12.12,15.4.34,28.29,6.37,37.31,19.34a45.85,45.85,0,0,1,7.74,21,48.42,48.42,0,0,1-3.89,26.41c-6.31,13.82-17.1,22.13-31.89,25.34A56.39,56.39,0,0,1,475.05,317c-6,0-11.92,0-17.88,0-1.07,0-1.4.23-1.4,1.36.05,12,0,23.92.06,35.88,0,1.14-.25,1.46-1.43,1.45q-15.24-.07-30.48,0c-1.19,0-1.42-.34-1.41-1.47Q422.56,321.95,422.53,289.67ZM455.8,271q0,7.68,0,15.36c0,.66,0,1.14.92,1.13,6.88-.12,13.76.24,20.63-.21a12.67,12.67,0,0,0,8.94-4.55c3.24-3.74,4.33-8.18,4-13-.47-7.42-5.11-15-15.39-15-6,0-12,0-18,0-.9,0-1.15.27-1.14,1.16C455.82,260.88,455.8,265.92,455.8,271Z" transform="translate(-82.04 -159.1)"/><path class="cls-1" d="M292.8,315.13a34.84,34.84,0,0,1-8.65,24.46A48.72,48.72,0,0,1,264.58,353a63.9,63.9,0,0,1-25.49,4.53,52,52,0,0,1-25.27-7.57,66.48,66.48,0,0,1-17.51-15.28c-.57-.7-.67-1.11.07-1.8q9.88-9.18,19.67-18.46c.55-.52.73-.35,1.17.13a36.7,36.7,0,0,0,22.46,11.65,26.13,26.13,0,0,0,13-1,11.34,11.34,0,0,0,5.8-4.25c2.54-3.81,1.77-8.06-2-11s-8-4.26-12.4-5.4c-4.06-1.05-8.25-1.35-12.31-2.39-9.2-2.37-17.54-6.33-24.26-13.22a36.55,36.55,0,0,1-10.25-20.77,40,40,0,0,1,1.39-19c3-8.89,8.94-15.36,16.93-20a53.65,53.65,0,0,1,21.58-6.9,63.17,63.17,0,0,1,28.1,2.82,52.93,52.93,0,0,1,21.43,14.43c.84.91,1.6,1.89,2.45,2.79.48.5.32.76-.14,1.12q-7.43,5.67-14.82,11.38c-1.83,1.41-3.72,2.77-5.49,4.25-.76.64-1.15.47-1.76-.15a33,33,0,0,0-16-9.11c-4.82-1.18-9.64-1.33-14.3.76a10.83,10.83,0,0,0-6.86,10c-.14,3.12,1.65,5.42,4,7.23a29.66,29.66,0,0,0,11.71,4.91c5.78,1.3,11.63,2.29,17.28,4.12a54.76,54.76,0,0,1,16.16,7.88c7.74,5.77,12,13.54,13.37,23A59,59,0,0,1,292.8,315.13Z" transform="translate(-82.04 -159.1)"/><path class="cls-1" d="M167.46,305.52c-1.28-.94-1.88-2.41-2.72-3.67-3.28-4.93-6.46-9.93-9.69-14.89q-7.63-11.74-15.29-23.49c-4.09-6.3-8.15-12.61-12.25-18.91-5.26-8.1-10.57-16.17-15.81-24.28a8.6,8.6,0,0,1,2.58-12.12c5.72-3.74,11.5-7.41,17.2-11.17,1.06-.7,1.19-.18,1.46.66q3.45,10.9,6.94,21.8c2.64,8.21,5.31,16.42,8,24.63q3.12,9.64,6.21,19.29t6.26,19.53q3.12,9.71,6.23,19.41c.34,1.05.64,2.12,1,3.19Z" transform="translate(-82.04 -159.1)"/><path class="cls-1" d="M170.25,309.91c1.33.62,2.47,1.47,3.74,2.12a11,11,0,0,0,6.87.77c2.9-.45,5.6-1.71,8.39-2.59,4.8-1.52,9.59-3.1,14.38-4.65a2.72,2.72,0,0,1,.51,0,18.6,18.6,0,0,1-3.09,2.21q-6.72,4.41-13.49,8.73a18.37,18.37,0,0,1-3.71,2.15c-3.71,1.28-7,.59-9.58-2.44A31.83,31.83,0,0,1,170.25,309.91Z" transform="translate(-82.04 -159.1)"/><path class="cls-1" d="M170.91,171.42c4.27-2.78,8.37-5.64,12.66-8.18,3-1.79,6.23-1.49,9.21.48.22.14.52.28.46.61s-.28.24-.47.31l-21.64,6.91S171.07,171.52,170.91,171.42Z" transform="translate(-82.04 -159.1)"/><path class="cls-1" d="M167.49,305.5a3.53,3.53,0,0,1,.75,1.52,1.88,1.88,0,0,1-.78-1.5Z" transform="translate(-82.04 -159.1)"/><path class="cls-1" d="M169.85,309.34l0,.1-.11-.14.08-.05A.31.31,0,0,1,169.85,309.34Z" transform="translate(-82.04 -159.1)"/><path class="cls-1" d="M200.84,312l.26-.18.07.1-.32.09Z" transform="translate(-82.04 -159.1)"/><path class="cls-1" d="M200.85,312l-.24.24h0l.24-.24Z" transform="translate(-82.04 -159.1)"/></svg>